<svg width="12" height="9" viewBox="0 0 12 9" fill="none" xmlns="http://www.w3.org/2000/svg">
<path d="M10.3624 0.862346L4.625 6.5997L2.01265 3.98735L2.01265 3.98735C1.72952 3.70424 1.27048 3.70424 0.987348 3.98735L1.05806 4.05806L0.987347 3.98735C0.704218 4.27047 0.704218 4.72953 0.987346 5.01265L3.67041 7.69571L3.74112 7.625L3.67041 7.69571C4.19761 8.22288 5.05238 8.22296 5.57959 7.69571C5.57959 7.69571 5.57959 7.69571 5.57959 7.69571L11.3876 1.88765L11.3169 1.81694L11.3877 1.88765C11.6708 1.60452 11.6708 1.14548 11.3877 0.862348L11.3169 0.933056L11.3876 0.862347C11.1045 0.579218 10.6455 0.579218 10.3624 0.862346Z" fill="white" stroke="white" stroke-width="0.2"/>
</svg>
