<svg width="8" height="8" viewBox="0 0 8 8" fill="none" xmlns="http://www.w3.org/2000/svg">
<path d="M7.77295 6.97702C7.87862 7.08269 7.93799 7.22602 7.93799 7.37546C7.93799 7.5249 7.87862 7.66822 7.77295 7.7739C7.66728 7.87957 7.52395 7.93894 7.37451 7.93894C7.22507 7.93894 7.08175 7.87957 6.97607 7.7739L3.99998 4.79687L1.02295 7.77296C0.917276 7.87863 0.773954 7.938 0.624511 7.938C0.475068 7.938 0.331746 7.87863 0.226073 7.77296C0.120401 7.66729 0.0610352 7.52397 0.0610352 7.37452C0.0610352 7.22508 0.120401 7.08176 0.226073 6.97608L3.2031 3.99999L0.227011 1.02296C0.121339 0.917287 0.0619727 0.773965 0.0619727 0.624522C0.0619727 0.475079 0.121339 0.331757 0.227011 0.226084C0.332683 0.120412 0.476005 0.0610461 0.625448 0.0610461C0.774891 0.0610461 0.918214 0.120412 1.02389 0.226084L3.99998 3.20312L6.97701 0.225616C7.08268 0.119943 7.226 0.0605774 7.37545 0.0605774C7.52489 0.0605774 7.66821 0.119943 7.77389 0.225616C7.87956 0.331288 7.93892 0.47461 7.93892 0.624053C7.93892 0.773496 7.87956 0.916818 7.77389 1.02249L4.79685 3.99999L7.77295 6.97702Z" fill="#1DBF73"/>
</svg>
